<svg width="168" height="156" viewBox="0 0 168 156" fill="none" xmlns="http://www.w3.org/2000/svg">
<path fill-rule="evenodd" clip-rule="evenodd" d="M167.537 85.4942C165.08 60.5835 137.339 40.1564 105.599 39.8892C73.8858 39.6328 50.1383 59.6181 52.6602 84.5178C55.1501 109.45 82.8964 129.91 114.588 130.161C146.333 130.417 170.049 110.427 167.537 85.4942ZM62.5666 79.2433C60.4605 59.1708 81.0196 43.0364 108.606 43.2546C136.176 43.4564 160.27 59.9399 162.435 80.007C164.605 100.145 144.003 116.268 116.428 116.045C88.8519 115.838 64.7579 99.354 62.5666 79.2433Z" fill="#FBB584"/>
<path fill-rule="evenodd" clip-rule="evenodd" d="M61.7299 75.8432C43.5861 95.223 43.3089 125.103 61.0422 142.546C78.8768 159.93 108.047 158.375 126.233 138.935C144.35 119.501 144.665 89.6649 126.846 72.2214C109.086 54.8161 79.9271 56.3979 61.7299 75.8432ZM119.648 130.655C104.01 147.346 78.9461 148.726 63.6334 133.732C48.294 118.792 48.5606 93.014 64.2145 76.3669C79.8258 59.6543 104.912 58.2634 120.23 73.2742C135.564 88.274 135.292 113.959 119.648 130.655Z" fill="#F89B6C"/>
<path fill-rule="evenodd" clip-rule="evenodd" d="M33.2544 24.0087C-0.511368 51.3139 -9.08477 90.9299 14.0496 112.404C37.1519 133.884 83.2606 129.231 116.989 101.888C150.718 74.5773 159.307 35.0104 136.189 13.5088C113.07 -8.01465 66.9349 -3.31288 33.2544 24.0087ZM63.3946 13.3124C95.9288 0.859807 128.036 13.4542 135.186 41.4685C142.331 69.461 121.798 102.302 89.2801 114.761C56.7993 127.235 24.617 114.613 17.4939 86.599C10.3174 58.5793 30.9191 25.7814 63.3946 13.3124Z" fill="#F37321"/>
</svg>
