<svg xmlns="http://www.w3.org/2000/svg" width="1028.6855mm" height="249.99998mm" viewBox="16.952 -12.999 445.734 262.283">
  <path d="M-50.31 171.475c-3.78-7.462-12.935-10.47-20.407-6.68-7.448 3.785-10.435 12.946-6.665 20.394 2.987 5.861 9.279 8.948 15.453 8.166l29.299 47.555c.135.227.43.32.694.195a.529.529 0 0 0 .238-.68l-21.066-51.772c4.225-4.517 5.406-11.363 2.454-17.178M-7.593 211.958l-13.401 26.75c-.11.18-.043.423.15.547.18.114.408.075.558-.096l18.668-23.317c4.723 1.245 9.944-.615 12.715-4.943 3.432-5.37 1.853-12.544-3.507-15.977-5.37-3.428-12.537-1.86-15.965 3.507-2.76 4.318-2.284 9.767.782 13.53M24.373 243.797l-42.878 5.947a.535.535 0 0 0-.455.548c.01.28.227.498.501.512l43.227 1.465c2.07 5.449 7.465 9.208 13.586 8.892 7.575-.392 13.422-6.886 13.035-14.458-.385-7.586-6.879-13.433-14.465-13.038-6.068.33-11.029 4.545-12.551 10.132M-33.744 254.356l-32.216 31.433c-5.573-2.077-12.103-.58-16.136 4.246-5.096 6.11-4.289 15.247 1.828 20.347 6.11 5.111 15.23 4.293 20.351-1.817 4.054-4.848 4.371-11.605 1.273-16.737l25.753-36.768c.171-.238.125-.544-.103-.74a.558.558 0 0 0-.75.036M2.447 306.965a12.297 12.297 0 0 0 6.039-7.291c.978-3.176.672-6.53-.886-9.436-1.554-2.938-4.143-5.086-7.302-6.039a12.367 12.367 0 0 0-5.391-.441l-17.296-26.073c-.114-.207-.384-.278-.612-.16a.452.452 0 0 0-.202.604l10.762 29.491a12.29 12.29 0 0 0-2.746 4.763 12.248 12.248 0 0 0 .896 9.439c3.19 6.053 10.695 8.343 16.738 5.143M-95.277 246.385c0 3.304 1.294 6.416 3.645 8.753 2.33 2.34 5.449 3.613 8.767 3.602 3.3 0 6.412-1.294 8.742-3.634a12.373 12.373 0 0 0 2.874-4.567l31.137-3.123a.468.468 0 0 0 .43-.476c0-.25-.18-.456-.419-.466l-31.116-4.236a12.63 12.63 0 0 0-2.927-4.656 12.376 12.376 0 0 0-8.778-3.606c-6.84.007-12.377 5.573-12.355 12.409"
        style="fill:#6fba2c;fill-opacity:1;fill-rule:nonzero;stroke:none;stroke-width:3.55657"
        transform="translate(435.756 -173.247) scale(1.06185)"/>
  <path d="M-320.645 285.299h-14.365s-36.551 47.466-39.222 50.926v-52.833l-1.1.125-35.042 3.837v5.335l.875.093c14.386 1.568 15.396 2.557 15.396 14.99v89.036h19.87v-53.484c2.718 3.93 36.907 53.484 36.907 53.484h23.257s-43.48-61.49-44.297-62.66c.86-1.11 37.72-48.85 37.72-48.85M-262.95 330.503c-12.16-6.256-22.666-11.673-22.666-22.574 0-9.275 5.477-14.795 14.639-14.795 12.355 0 24.195 5.043 28.705 7.22l1.408.686v-14.436l-1.237-.224c-4.439-.875-14.831-2.877-25.79-2.877-23.547 0-37.596 10.908-37.596 29.142 0 18.903 15.717 27.122 29.58 34.37 11.993 6.267 23.314 12.186 23.314 23.9 0 14.924-10.528 18.068-19.362 18.068-12.185 0-24.391-6.042-30.6-9.642l-1.477-.85v15.66l1.931.462c4.393 1.092 16.055 3.98 27.535 3.98 26.593 0 41.847-12.039 41.847-33.055 0-19.43-16.058-27.709-30.231-35.035M-180.182 387.178c-10.239 0-10.239-3.45-10.239-9.741V302.72c0-6.74 2.927-7.804 12.352-7.804 30.672 0 33.033 19.156 33.033 46.218 0 31.202-5.256 46.043-35.146 46.043m.488-101.881h-46.065v5.392l1.042.185c14.411 2.35 14.411 2.35 14.411 17.54v88.392h25.241c32.77 0 59.9-4.211 59.9-56.002 0-48.782-26.205-55.507-54.53-55.507"
        style="fill:#231916;fill-opacity:1;fill-rule:nonzero;stroke:none;stroke-width:3.55657"
        transform="translate(435.756 -173.247) scale(1.06185)"/>
</svg>